# xmcd
#
# Track frame offsets:
#	150
#	19145
#	35442
#	46575
#	65727
#	89372
#	105105
#	118055
#	128782
#	149962
#	168937
#	190512
#	214835
#	236432
#	254807
#
# Disc length: 3662 seconds
#
# Revision: 11
# Processed by: cddbd v1.5.2PL0 Copyright (c) Steve Scherf et al.
# Submitted via: EasyCDDAExtractor 15.3.0.1
#
DISCID=d30e4c0f
DTITLE=Celine Dion - A New Day... Live In Las Vegas
DYEAR=2004
DGENRE=Pop
TTITLE0=Nature Boy
TTITLE1=It's All Coming Back To Me Now
TTITLE2=Because You Loved Me (Love Theme From ''Up Close and Personal'')
TTITLE3=I'm Alive
TTITLE4=If I Could
TTITLE5=At Last
TTITLE6=Fever
TTITLE7=I've Got The World On A String
TTITLE8=Et Je T'aime Encore
TTITLE9=I Wish
TTITLE10=I Drove All Night
TTITLE11=My Heart Will Go On (Love Theme From ''Titanic'')
TTITLE12=What A Wonderful World
TTITLE13=You And I (Studio Recording)
TTITLE14=Ain't Gonna Look The Other Way (Studio Recording)
EXTD=YEAR: 2004 ID3G:  17
EXTT0=
EXTT1=
EXTT2=
EXTT3=
EXTT4=
EXTT5=
EXTT6=
EXTT7=
EXTT8=
EXTT9=
EXTT10=
EXTT11=
EXTT12=
EXTT13=
EXTT14=
PLAYORDER=
